<svg width="197" height="41" viewBox="0 0 197 41" fill="none" xmlns="http://www.w3.org/2000/svg">
<path d="M15.42 1.18C20.38 1.18 22.86 3.82 22.86 9.1V32.08C22.86 37.36 20.38 40 15.42 40H4.47035e-08V1.18H15.42ZM14.46 33.04V8.08C14.46 7.76 14.34 7.48 14.1 7.24C13.9 7 13.64 6.88 13.32 6.88H8.4V34.24H13.32C13.64 34.24 13.9 34.12 14.1 33.88C14.34 33.64 14.46 33.36 14.46 33.04ZM37.5211 1.18V40H29.1211V1.18H37.5211ZM65.3095 11.38H57.3295V8.32C57.3295 8 57.2095 7.72 56.9695 7.48C56.7695 7.24 56.5095 7.12 56.1895 7.12H52.8895C52.5695 7.12 52.2895 7.24 52.0495 7.48C51.8495 7.72 51.7495 8 51.7495 8.32V15.22C51.7495 15.54 51.8495 15.82 52.0495 16.06C52.2895 16.3 52.5695 16.42 52.8895 16.42H58.2895C63.2495 16.5 65.7295 19.14 65.7295 24.34V32.68C65.7295 37.96 63.2495 40.6 58.2895 40.6H51.2095C46.2495 40.6 43.7695 37.96 43.7695 32.68V28.66H51.7495V32.98C51.7495 33.3 51.8495 33.58 52.0495 33.82C52.2895 34.06 52.5695 34.18 52.8895 34.18H56.6095C56.9295 34.18 57.1895 34.06 57.3895 33.82C57.6295 33.58 57.7495 33.3 57.7495 32.98V25.36C57.7495 25.04 57.6295 24.76 57.3895 24.52C57.1895 24.28 56.9295 24.16 56.6095 24.16H51.2095C46.2495 24.16 43.7695 21.52 43.7695 16.24V8.5C43.7695 3.22 46.2495 0.58 51.2095 0.58H57.8695C62.8295 0.58 65.3095 3.22 65.3095 8.5V11.38ZM69.03 8.32V1.18H90.03V8.32H83.73V40H75.33V8.32H69.03ZM102.267 33.04H111.567V40H93.8672V1.18H111.567V8.02H102.267V17.14H110.967V23.74H102.267V33.04ZM138.686 40H130.286V7.78C130.286 7.46 130.166 7.18 129.926 6.94C129.726 6.7 129.466 6.58 129.146 6.58H125.906C125.586 6.58 125.306 6.7 125.066 6.94C124.866 7.18 124.766 7.46 124.766 7.78V40H116.366V8.5C116.366 3.22 118.846 0.58 123.806 0.58H131.246C136.206 0.58 138.686 3.22 138.686 8.5V40ZM159.736 1.18C164.696 1.18 167.176 3.82 167.176 9.1V32.08C167.176 37.36 164.696 40 159.736 40H144.316V1.18H159.736ZM158.776 33.04V8.08C158.776 7.76 158.656 7.48 158.416 7.24C158.216 7 157.956 6.88 157.636 6.88H152.716V34.24H157.636C157.956 34.24 158.216 34.12 158.416 33.88C158.656 33.64 158.776 33.36 158.776 33.04ZM188.858 0.58C193.818 0.58 196.298 3.22 196.298 8.5V40H187.898V26.98H181.838V40H173.438V8.5C173.438 3.22 175.918 0.58 180.878 0.58H188.858ZM181.838 20.5H187.898V7.48C187.898 7.16 187.778 6.88 187.538 6.64C187.338 6.4 187.078 6.28 186.758 6.28H182.978C182.658 6.28 182.378 6.4 182.138 6.64C181.938 6.88 181.838 7.16 181.838 7.48V20.5Z" fill="#14375F"/>
</svg>
