<svg width="20" height="20" viewBox="0 0 20 20" fill="none" xmlns="http://www.w3.org/2000/svg">
<mask id="mask0_1838_39261" style="mask-type:luminance" maskUnits="userSpaceOnUse" x="0" y="12" width="16" height="8">
<path fill-rule="evenodd" clip-rule="evenodd" d="M0 12.457H15.1838V19.5566H0V12.457Z" fill="white"/>
</mask>
<g mask="url(#mask0_1838_39261)">
<path fill-rule="evenodd" clip-rule="evenodd" d="M7.59176 13.957C4.81276 13.957 1.49976 14.314 1.49976 16.019C1.49976 17.371 3.54976 18.057 7.59176 18.057C11.6338 18.057 13.6838 17.364 13.6838 15.999C13.6838 14.644 11.6338 13.957 7.59176 13.957ZM7.59176 19.557C5.51576 19.557 -0.000244141 19.557 -0.000244141 16.019C-0.000244141 12.457 5.71376 12.457 7.59176 12.457C10.8508 12.457 15.1838 12.824 15.1838 15.999C15.1838 19.557 9.46976 19.557 7.59176 19.557Z" fill="black"/>
</g>
<path fill-rule="evenodd" clip-rule="evenodd" d="M7.59181 2C5.58681 2 3.95581 3.631 3.95581 5.635C3.95581 7.639 5.58681 9.27 7.59181 9.27H7.62281C8.58681 9.266 9.49481 8.887 10.1758 8.2C10.8578 7.515 11.2308 6.604 11.2268 5.638C11.2268 3.631 9.59581 2 7.59181 2ZM7.59181 10.77C4.75981 10.77 2.45581 8.466 2.45581 5.635C2.45581 2.804 4.75981 0.5 7.59181 0.5C10.4228 0.5 12.7268 2.804 12.7268 5.635C12.7328 6.999 12.2038 8.287 11.2398 9.257C10.2778 10.228 8.99281 10.765 7.62581 10.77H7.59181Z" fill="black"/>
<path fill-rule="evenodd" clip-rule="evenodd" d="M14.4824 9.63177C14.1144 9.63177 13.7934 9.36077 13.7404 8.98577C13.6834 8.57577 13.9684 8.19577 14.3784 8.13877C15.6264 7.96377 16.5684 6.88077 16.5704 5.61877C16.5704 4.36477 15.6724 3.30677 14.4374 3.10477C14.0284 3.03677 13.7514 2.65177 13.8184 2.24277C13.8854 1.83377 14.2724 1.55877 14.6794 1.62377C16.6444 1.94577 18.0704 3.62677 18.0704 5.61977C18.0664 7.62477 16.5694 9.34677 14.5874 9.62477C14.5524 9.62977 14.5174 9.63177 14.4824 9.63177Z" fill="black"/>
<mask id="mask1_1838_39261" style="mask-type:luminance" maskUnits="userSpaceOnUse" x="15" y="11" width="5" height="6">
<path fill-rule="evenodd" clip-rule="evenodd" d="M15.8452 11.9834H19.979V16.9609H15.8452V11.9834Z" fill="white"/>
</mask>
<g mask="url(#mask1_1838_39261)">
<path fill-rule="evenodd" clip-rule="evenodd" d="M17.8955 16.9609C17.5925 16.9609 17.3075 16.7759 17.1945 16.4769C17.0475 16.0899 17.2425 15.6559 17.6295 15.5099C18.4795 15.1879 18.4795 14.7949 18.4795 14.6269C18.4795 14.0599 17.8085 13.6719 16.4855 13.4749C16.0755 13.4129 15.7925 13.0309 15.8535 12.6219C15.9155 12.2119 16.3045 11.9369 16.7065 11.9899C19.4125 12.3949 19.9795 13.6479 19.9795 14.6269C19.9795 15.3559 19.6645 16.3429 18.1615 16.9119C18.0745 16.9449 17.9845 16.9609 17.8955 16.9609Z" fill="black"/>
</g>
</svg>
