<svg width="36" height="36" viewBox="0 0 36 36" fill="none" xmlns="http://www.w3.org/2000/svg">
<path d="M18 3C9.735 3 3 9.735 3 18C3 26.265 9.735 33 18 33C26.265 33 33 26.265 33 18C33 9.735 26.265 3 18 3ZM20.685 22.5C21.12 22.935 21.12 23.655 20.685 24.09C20.46 24.315 20.175 24.42 19.89 24.42C19.605 24.42 19.32 24.315 19.095 24.09L13.8 18.795C13.365 18.36 13.365 17.64 13.8 17.205L19.095 11.91C19.53 11.475 20.25 11.475 20.685 11.91C21.12 12.345 21.12 13.065 20.685 13.5L16.185 18L20.685 22.5Z" fill="#6C8299"/>
</svg>
