<svg width="28" height="28" viewBox="0 0 28 28" fill="none" xmlns="http://www.w3.org/2000/svg">
<path fill-rule="evenodd" clip-rule="evenodd" d="M7.90137 20.9529C7.38387 20.9529 6.96387 20.5329 6.96387 20.0154V11.4404C6.96387 10.9229 7.38387 10.5029 7.90137 10.5029C8.41887 10.5029 8.83887 10.9229 8.83887 11.4404V20.0154C8.83887 20.5329 8.41887 20.9529 7.90137 20.9529" fill="white"/>
<path fill-rule="evenodd" clip-rule="evenodd" d="M13.7351 20.9522C13.2176 20.9522 12.7976 20.5322 12.7976 20.0147V7.33594C12.7976 6.81844 13.2176 6.39844 13.7351 6.39844C14.2526 6.39844 14.6726 6.81844 14.6726 7.33594V20.0147C14.6726 20.5322 14.2526 20.9522 13.7351 20.9522" fill="white"/>
<path fill-rule="evenodd" clip-rule="evenodd" d="M19.473 20.9517C18.9555 20.9517 18.5355 20.5317 18.5355 20.0142V15.9717C18.5355 15.4542 18.9555 15.0342 19.473 15.0342C19.9905 15.0342 20.4105 15.4542 20.4105 15.9717V20.0142C20.4105 20.5317 19.9905 20.9517 19.473 20.9517" fill="white"/>
<path fill-rule="evenodd" clip-rule="evenodd" d="M7.83 2.125C4.365 2.125 2.125 4.49625 2.125 8.16875V19.2062C2.125 22.8787 4.365 25.25 7.83 25.25H19.545C23.0112 25.25 25.25 22.8787 25.25 19.2062V8.16875C25.25 4.49625 23.0112 2.125 19.545 2.125H7.83ZM19.545 27.125H7.83C3.29625 27.125 0.25 23.9425 0.25 19.2062V8.16875C0.25 3.4325 3.29625 0.25 7.83 0.25H19.545C24.0787 0.25 27.125 3.4325 27.125 8.16875V19.2062C27.125 23.9425 24.0787 27.125 19.545 27.125V27.125Z" fill="white"/>
</svg>
