<svg width="20" height="20" viewBox="0 0 20 20" fill="none" xmlns="http://www.w3.org/2000/svg">
<g id="Discount">
<g id="Group 3">
<mask id="mask0_5149_28194" style="mask-type:luminance" maskUnits="userSpaceOnUse" x="0" y="0" width="21" height="21">
<path id="Clip 2" fill-rule="evenodd" clip-rule="evenodd" d="M0.000183105 0H20.0029V20.001H0.000183105V0Z" fill="white"/>
</mask>
<g mask="url(#mask0_5149_28194)">
<path id="Fill 1" fill-rule="evenodd" clip-rule="evenodd" d="M8.94491 18.0754C9.53491 18.6514 10.4849 18.6444 11.0709 18.0554L11.7929 17.3354C12.3529 16.7764 13.1269 16.4574 13.9159 16.4574H14.9459C15.7799 16.4574 16.4579 15.7794 16.4579 14.9464V13.9174C16.4579 13.1164 16.7679 12.3634 17.3339 11.7964L18.0539 11.0754C18.3469 10.7814 18.5039 10.4004 18.5029 9.99639C18.5019 9.59339 18.3429 9.21439 18.0559 8.92839L17.3349 8.20639C16.7679 7.63539 16.4579 6.88339 16.4579 6.08239V5.05539C16.4579 4.22139 15.7799 3.54339 14.9459 3.54339H13.9179C13.1169 3.54339 12.3639 3.23239 11.7969 2.66939L11.0749 1.94639C10.4739 1.35139 9.5149 1.35439 8.92791 1.94539L8.20891 2.66639C7.63491 3.23339 6.88191 3.54339 6.08391 3.54339H5.05491C4.22191 3.54439 3.54391 4.22239 3.54391 5.05539V6.08039C3.54391 6.88139 3.23291 7.63439 2.66891 8.20239L1.95891 8.91339C1.95191 8.92139 1.94491 8.92739 1.93791 8.93439C1.35091 9.52539 1.35391 10.4844 1.94491 11.0714L2.66691 11.7934C3.23291 12.3614 3.54391 13.1144 3.54391 13.9154V14.9464C3.54391 15.7794 4.22091 16.4574 5.05491 16.4574H6.0819C6.8839 16.4584 7.63691 16.7694 8.20391 17.3344L8.92491 18.0534C8.93091 18.0604 8.93791 18.0674 8.94491 18.0754ZM9.99891 20.0014C9.2319 20.0014 8.46491 19.7114 7.87791 19.1294C7.86991 19.1214 7.86191 19.1134 7.85391 19.1044L7.14391 18.3954C6.86091 18.1144 6.48291 17.9584 6.08091 17.9574H5.05491C3.39391 17.9574 2.04391 16.6064 2.04391 14.9464V13.9154C2.04391 13.5134 1.88691 13.1364 1.60491 12.8524L0.885905 12.1344C-0.282095 10.9724 -0.296095 9.08039 0.850905 7.90039C0.859905 7.89139 0.868905 7.88239 0.877905 7.87339L1.60591 7.14339C1.88691 6.86039 2.04391 6.48139 2.04391 6.08039V5.05539C2.04391 3.39539 3.39391 2.04439 5.05391 2.04339H6.08391C6.48491 2.04339 6.86291 1.88639 7.14991 1.60339L7.86491 0.886387C9.03391 -0.290613 10.9449 -0.296613 12.1239 0.875387L12.8549 1.60639C13.1379 1.88739 13.5159 2.04339 13.9179 2.04339H14.9459C16.6069 2.04339 17.9579 3.39439 17.9579 5.05539V6.08239C17.9579 6.48339 18.1139 6.86239 18.3969 7.14739L19.1149 7.86639C19.6839 8.43139 19.9999 9.18639 20.0029 9.99139C20.0059 10.7964 19.6949 11.5534 19.1279 12.1244L18.3949 12.8554C18.1139 13.1384 17.9579 13.5154 17.9579 13.9174V14.9464C17.9579 16.6064 16.6069 17.9574 14.9469 17.9574H13.9159C13.5199 17.9574 13.1329 18.1174 12.8519 18.3964L12.1339 19.1144C11.5469 19.7054 10.7729 20.0014 9.99891 20.0014Z" fill="black"/>
</g>
</g>
<path id="Fill 4" fill-rule="evenodd" clip-rule="evenodd" d="M7.43029 13.3204C7.23829 13.3204 7.04629 13.2474 6.90029 13.1004C6.60729 12.8074 6.60729 12.3334 6.90029 12.0404L12.0403 6.89944C12.3333 6.60644 12.8083 6.60644 13.1013 6.89944C13.3943 7.19244 13.3943 7.66744 13.1013 7.96044L7.96029 13.1004C7.81429 13.2474 7.62229 13.3204 7.43029 13.3204Z" fill="black"/>
<path id="Fill 6" fill-rule="evenodd" clip-rule="evenodd" d="M12.5035 13.498C11.9505 13.498 11.4985 13.051 11.4985 12.498C11.4985 11.945 11.9415 11.498 12.4945 11.498H12.5035C13.0565 11.498 13.5035 11.945 13.5035 12.498C13.5035 13.051 13.0565 13.498 12.5035 13.498Z" fill="black"/>
<path id="Fill 8" fill-rule="evenodd" clip-rule="evenodd" d="M7.50354 8.49805C6.95054 8.49805 6.49854 8.05105 6.49854 7.49805C6.49854 6.94505 6.94154 6.49805 7.49454 6.49805H7.50354C8.05654 6.49805 8.50354 6.94505 8.50354 7.49805C8.50354 8.05105 8.05654 8.49805 7.50354 8.49805Z" fill="black"/>
</g>
</svg>
