<svg width="28" height="28" viewBox="0 0 28 28" fill="none" xmlns="http://www.w3.org/2000/svg">
<path d="M14 26.5C20.9037 26.5 26.5 20.9037 26.5 14C26.5 7.09625 20.9037 1.5 14 1.5C7.09625 1.5 1.5 7.09625 1.5 14C1.5 20.9037 7.09625 26.5 14 26.5Z" stroke="white" stroke-width="1.5" stroke-linecap="round" stroke-linejoin="round"/>
<path d="M17.75 9.625C16.8937 8.76875 15.3862 8.17375 14 8.13625M14 8.13625C12.35 8.09125 10.875 8.8375 10.875 10.875C10.875 14.625 17.75 12.75 17.75 16.5C17.75 18.6387 15.92 19.5575 14 19.4888M14 8.13625V5.875M10.25 17.75C11.055 18.825 12.5538 19.4375 14 19.4888M14 19.4888V22.125" stroke="white" stroke-width="1.5" stroke-linecap="round" stroke-linejoin="round"/>
</svg>
