<svg width="18" height="21" viewBox="0 0 18 21" fill="none" xmlns="http://www.w3.org/2000/svg">
<path d="M13 6.5V5.5C13 3.29086 11.2091 1.5 9 1.5V1.5C6.79086 1.5 5 3.29086 5 5.5V6.5" stroke="white" stroke-width="2" stroke-linecap="round"/>
<path fill-rule="evenodd" clip-rule="evenodd" d="M0.87868 6.37868C0 7.25736 0 8.67157 0 11.5V12.5C0 16.2712 0 18.1569 1.17157 19.3284C2.34315 20.5 4.22876 20.5 8 20.5H10C13.7712 20.5 15.6569 20.5 16.8284 19.3284C18 18.1569 18 16.2712 18 12.5V11.5C18 8.67157 18 7.25736 17.1213 6.37868C16.2426 5.5 14.8284 5.5 12 5.5H6C3.17157 5.5 1.75736 5.5 0.87868 6.37868ZM9 13.5C9.55228 13.5 10 13.0523 10 12.5C10 11.9477 9.55228 11.5 9 11.5C8.44772 11.5 8 11.9477 8 12.5C8 13.0523 8.44772 13.5 9 13.5ZM12 12.5C12 13.8062 11.1652 14.9175 10 15.3293V17.5H8V15.3293C6.83481 14.9175 6 13.8062 6 12.5C6 10.8431 7.34315 9.5 9 9.5C10.6569 9.5 12 10.8431 12 12.5Z" fill="white"/>
</svg>
