<svg width="19" height="22" viewBox="0 0 19 22" fill="none" xmlns="http://www.w3.org/2000/svg">
<mask id="mask0_1838_39310" style="mask-type:luminance" maskUnits="userSpaceOnUse" x="0" y="0" width="19" height="18">
<path fill-rule="evenodd" clip-rule="evenodd" d="M0.00012207 0.5H18.497V17.848H0.00012207V0.5Z" fill="white"/>
</mask>
<g mask="url(#mask0_1838_39310)">
<path fill-rule="evenodd" clip-rule="evenodd" d="M9.24714 2C5.75214 2 3.31614 4.738 3.31614 7.195C3.31614 9.274 2.73914 10.235 2.22914 11.083C1.82014 11.764 1.49714 12.302 1.49714 13.471C1.66414 15.357 2.90914 16.348 9.24714 16.348C15.5501 16.348 16.8341 15.313 17.0001 13.406C16.9971 12.302 16.6741 11.764 16.2651 11.083C15.7551 10.235 15.1781 9.274 15.1781 7.195C15.1781 4.738 12.7421 2 9.24714 2ZM9.24714 17.848C4.57114 17.848 0.345135 17.518 0.000135425 13.535C-0.00286458 11.887 0.500135 11.049 0.944135 10.311C1.39314 9.563 1.81614 8.858 1.81614 7.195C1.81614 3.962 4.80213 0.5 9.24714 0.5C13.6921 0.5 16.6781 3.962 16.6781 7.195C16.6781 8.858 17.1011 9.563 17.5501 10.311C17.9941 11.049 18.4971 11.887 18.4971 13.471C18.1481 17.518 13.9231 17.848 9.24714 17.848Z" fill="black"/>
</g>
<path fill-rule="evenodd" clip-rule="evenodd" d="M9.19839 21.9996H9.19639C8.07539 21.9986 7.01439 21.5046 6.20939 20.6076C5.93239 20.3006 5.95739 19.8256 6.26539 19.5496C6.57339 19.2716 7.04739 19.2966 7.32439 19.6056C7.84239 20.1826 8.50739 20.4996 9.19739 20.4996H9.19839C9.89139 20.4996 10.5594 20.1826 11.0784 19.6046C11.3564 19.2976 11.8304 19.2726 12.1374 19.5496C12.4454 19.8266 12.4704 20.3016 12.1934 20.6086C11.3854 21.5056 10.3224 21.9996 9.19839 21.9996Z" fill="black"/>
</svg>
