<svg width="18" height="20" viewBox="0 0 18 20" fill="none" xmlns="http://www.w3.org/2000/svg">
<mask id="mask0_1838_39280" style="mask-type:luminance" maskUnits="userSpaceOnUse" x="0" y="0" width="18" height="20">
<path fill-rule="evenodd" clip-rule="evenodd" d="M0.000244141 0.0117188H17.0529V19.8652H0.000244141V0.0117188Z" fill="white"/>
</mask>
<g mask="url(#mask0_1838_39280)">
<path fill-rule="evenodd" clip-rule="evenodd" d="M4.57335 1.51172C2.91635 1.51172 1.54035 2.85372 1.50135 4.50872V15.2037C1.46435 16.9167 2.81435 18.3277 4.51035 18.3657H12.5743C14.2433 18.2967 15.5653 16.9097 15.5533 15.2097V6.33972L10.9183 1.51172H4.58535H4.57335ZM4.58535 19.8657H4.47635C1.95435 19.8087 -0.0536524 17.7107 0.00134757 15.1877V4.49072C0.0593476 2.00972 2.10835 0.0117188 4.57135 0.0117188H4.58835H11.2383C11.4423 0.0117188 11.6373 0.0947188 11.7793 0.241719L16.8443 5.51872C16.9783 5.65772 17.0533 5.84472 17.0533 6.03772V15.2037C17.0713 17.7127 15.1173 19.7627 12.6043 19.8647L4.58535 19.8657Z" fill="black"/>
</g>
<path fill-rule="evenodd" clip-rule="evenodd" d="M16.2985 6.984H13.5435C11.7135 6.979 10.2255 5.487 10.2255 3.659V0.75C10.2255 0.336 10.5615 0 10.9755 0C11.3895 0 11.7255 0.336 11.7255 0.75V3.659C11.7255 4.663 12.5425 5.481 13.5455 5.484H16.2985C16.7125 5.484 17.0485 5.82 17.0485 6.234C17.0485 6.648 16.7125 6.984 16.2985 6.984Z" fill="black"/>
<path fill-rule="evenodd" clip-rule="evenodd" d="M10.7887 14.1084H5.38867C4.97467 14.1084 4.63867 13.7724 4.63867 13.3584C4.63867 12.9444 4.97467 12.6084 5.38867 12.6084H10.7887C11.2027 12.6084 11.5387 12.9444 11.5387 13.3584C11.5387 13.7724 11.2027 14.1084 10.7887 14.1084Z" fill="black"/>
<path fill-rule="evenodd" clip-rule="evenodd" d="M8.7437 10.3564H5.3877C4.9737 10.3564 4.6377 10.0204 4.6377 9.60645C4.6377 9.19245 4.9737 8.85645 5.3877 8.85645H8.7437C9.1577 8.85645 9.4937 9.19245 9.4937 9.60645C9.4937 10.0204 9.1577 10.3564 8.7437 10.3564Z" fill="black"/>
</svg>
