<svg width="20" height="17" viewBox="0 0 20 17" fill="none" xmlns="http://www.w3.org/2000/svg">
<path fill-rule="evenodd" clip-rule="evenodd" d="M9.99938 5.64062C8.66938 5.64062 7.58838 6.72262 7.58838 8.05262C7.58838 9.38163 8.66938 10.4626 9.99938 10.4626C11.3294 10.4626 12.4114 9.38163 12.4114 8.05262C12.4114 6.72262 11.3294 5.64062 9.99938 5.64062ZM9.99938 11.9626C7.84238 11.9626 6.08838 10.2086 6.08838 8.05262C6.08838 5.89562 7.84238 4.14062 9.99938 4.14062C12.1564 4.14062 13.9114 5.89562 13.9114 8.05262C13.9114 10.2086 12.1564 11.9626 9.99938 11.9626Z" fill="#6C8299"/>
<mask id="mask0_4820_30934" style="mask-type:luminance" maskUnits="userSpaceOnUse" x="0" y="0" width="20" height="17">
<path fill-rule="evenodd" clip-rule="evenodd" d="M0 0H19.9998V16.105H0V0Z" fill="white"/>
</mask>
<g mask="url(#mask0_4820_30934)">
<path fill-rule="evenodd" clip-rule="evenodd" d="M1.56975 8.05275C3.42975 12.1617 6.56275 14.6047 9.99975 14.6057C13.4368 14.6047 16.5697 12.1617 18.4298 8.05275C16.5697 3.94475 13.4368 1.50175 9.99975 1.50075C6.56375 1.50175 3.42975 3.94475 1.56975 8.05275ZM10.0017 16.1057H9.99775H9.99675C5.86075 16.1027 2.14675 13.2038 0.06075 8.34875C-0.02025 8.15975 -0.02025 7.94575 0.06075 7.75675C2.14675 2.90275 5.86175 0.00375 9.99675 0.00075C9.99875 -0.00025 9.99875 -0.00025 9.99975 0.00075C10.0017 -0.00025 10.0017 -0.00025 10.0028 0.00075C14.1388 0.00375 17.8527 2.90275 19.9387 7.75675C20.0208 7.94575 20.0208 8.15975 19.9387 8.34875C17.8537 13.2038 14.1388 16.1027 10.0028 16.1057H10.0017Z" fill="#6C8299"/>
</g>
</svg>
