<svg width="25" height="24" viewBox="0 0 25 24" fill="none" xmlns="http://www.w3.org/2000/svg">
<path fill-rule="evenodd" clip-rule="evenodd" d="M12.1874 2.625C12.0736 2.625 11.7936 2.65625 11.6449 2.95375L9.3624 7.5175C9.00115 8.23875 8.3049 8.74 7.4999 8.855L2.3899 9.59125C2.0524 9.64 1.9374 9.89 1.9024 9.995C1.87115 10.0963 1.82115 10.3538 2.05365 10.5763L5.74865 14.1263C6.3374 14.6925 6.6049 15.5088 6.4649 16.3075L5.5949 21.32C5.54115 21.6338 5.7374 21.8163 5.8249 21.8788C5.9174 21.9488 6.1649 22.0875 6.47115 21.9275L11.0399 19.5588C11.7599 19.1875 12.6174 19.1875 13.3349 19.5588L17.9024 21.9263C18.2099 22.085 18.4574 21.9463 18.5511 21.8788C18.6386 21.8163 18.8349 21.6338 18.7811 21.32L17.9086 16.3075C17.7686 15.5088 18.0361 14.6925 18.6249 14.1263L22.3199 10.5763C22.5536 10.3538 22.5036 10.095 22.4711 9.995C22.4374 9.89 22.3224 9.64 21.9849 9.59125L16.8749 8.855C16.0711 8.74 15.3749 8.23875 15.0136 7.51625L12.7286 2.95375C12.5811 2.65625 12.3011 2.625 12.1874 2.625M6.18365 23.875C5.6674 23.875 5.1549 23.7125 4.71615 23.3925C3.95865 22.8375 3.5874 21.9212 3.74865 20.9987L4.61865 15.9863C4.65115 15.8 4.5874 15.6112 4.4499 15.4787L0.754895 11.9287C0.0748951 11.2775 -0.168855 10.315 0.118645 9.42125C0.408645 8.5175 1.17615 7.87125 2.1224 7.73625L7.2324 7C7.4299 6.9725 7.5999 6.85125 7.6849 6.67875L9.96864 2.11375C10.3899 1.2725 11.2399 0.75 12.1874 0.75V0.75C13.1349 0.75 13.9849 1.2725 14.4061 2.11375L16.6911 6.6775C16.7774 6.85125 16.9461 6.9725 17.1424 7L22.2524 7.73625C23.1986 7.87125 23.9661 8.5175 24.2561 9.42125C24.5436 10.315 24.2986 11.2775 23.6186 11.9287L19.9236 15.4787C19.7861 15.6112 19.7236 15.8 19.7561 15.985L20.6274 20.9987C20.7874 21.9225 20.4161 22.8388 19.6574 23.3925C18.8886 23.9563 17.8874 24.0325 17.0386 23.59L12.4724 21.2237C12.2936 21.1312 12.0799 21.1312 11.9011 21.2237L7.3349 23.5913C6.9699 23.7813 6.57615 23.875 6.18365 23.875" fill="white"/>
</svg>
