<svg width="24" height="24" viewBox="0 0 24 24" fill="none" xmlns="http://www.w3.org/2000/svg">
<mask id="mask0_5166_19726" style="mask-type:luminance" maskUnits="userSpaceOnUse" x="2" y="2" width="21" height="21">
<path fill-rule="evenodd" clip-rule="evenodd" d="M2.00024 2H22.003V22.001H2.00024V2Z" fill="white"/>
</mask>
<g mask="url(#mask0_5166_19726)">
<path fill-rule="evenodd" clip-rule="evenodd" d="M10.945 20.0754C11.535 20.6514 12.485 20.6444 13.071 20.0554L13.793 19.3354C14.353 18.7764 15.127 18.4574 15.916 18.4574H16.946C17.78 18.4574 18.458 17.7794 18.458 16.9464V15.9174C18.458 15.1164 18.768 14.3634 19.334 13.7964L20.054 13.0754C20.347 12.7814 20.504 12.4004 20.503 11.9964C20.502 11.5934 20.343 11.2144 20.056 10.9284L19.335 10.2064C18.768 9.63539 18.458 8.88339 18.458 8.08239V7.05539C18.458 6.22139 17.78 5.54339 16.946 5.54339H15.918C15.117 5.54339 14.364 5.23239 13.797 4.66939L13.075 3.94639C12.474 3.35139 11.515 3.35439 10.928 3.94539L10.209 4.66639C9.63497 5.23339 8.88197 5.54339 8.08397 5.54339H7.05497C6.22197 5.54439 5.54397 6.22239 5.54397 7.05539V8.08039C5.54397 8.88139 5.23297 9.63439 4.66897 10.2024L3.95897 10.9134C3.95197 10.9214 3.94497 10.9274 3.93797 10.9344C3.35097 11.5254 3.35397 12.4844 3.94497 13.0714L4.66697 13.7934C5.23297 14.3614 5.54397 15.1144 5.54397 15.9154V16.9464C5.54397 17.7794 6.22097 18.4574 7.05497 18.4574H8.08197C8.88397 18.4584 9.63697 18.7694 10.204 19.3344L10.925 20.0534C10.931 20.0604 10.938 20.0674 10.945 20.0754ZM11.999 22.0014C11.232 22.0014 10.465 21.7114 9.87797 21.1294C9.86997 21.1214 9.86197 21.1134 9.85397 21.1044L9.14397 20.3954C8.86097 20.1144 8.48297 19.9584 8.08097 19.9574H7.05497C5.39397 19.9574 4.04397 18.6064 4.04397 16.9464V15.9154C4.04397 15.5134 3.88697 15.1364 3.60497 14.8524L2.88597 14.1344C1.71797 12.9724 1.70397 11.0804 2.85097 9.90039C2.85997 9.89139 2.86897 9.88239 2.87797 9.87339L3.60597 9.14339C3.88697 8.86039 4.04397 8.48139 4.04397 8.08039V7.05539C4.04397 5.39539 5.39397 4.04439 7.05397 4.04339H8.08397C8.48497 4.04339 8.86297 3.88639 9.14997 3.60339L9.86497 2.88639C11.034 1.70939 12.945 1.70339 14.124 2.87539L14.855 3.60639C15.138 3.88739 15.516 4.04339 15.918 4.04339H16.946C18.607 4.04339 19.958 5.39439 19.958 7.05539V8.08239C19.958 8.48339 20.114 8.86239 20.397 9.14739L21.115 9.86639C21.684 10.4314 22 11.1864 22.003 11.9914C22.006 12.7964 21.695 13.5534 21.128 14.1244L20.395 14.8554C20.114 15.1384 19.958 15.5154 19.958 15.9174V16.9464C19.958 18.6064 18.607 19.9574 16.947 19.9574H15.916C15.52 19.9574 15.133 20.1174 14.852 20.3964L14.134 21.1144C13.547 21.7054 12.773 22.0014 11.999 22.0014Z" fill="black"/>
</g>
<path fill-rule="evenodd" clip-rule="evenodd" d="M9.43041 15.3214C9.23841 15.3214 9.04641 15.2484 8.90041 15.1014C8.60741 14.8084 8.60741 14.3344 8.90041 14.0414L14.0404 8.90041C14.3334 8.60741 14.8084 8.60741 15.1014 8.90041C15.3944 9.19341 15.3944 9.66841 15.1014 9.96141L9.96041 15.1014C9.81441 15.2484 9.62241 15.3214 9.43041 15.3214Z" fill="black"/>
<path fill-rule="evenodd" clip-rule="evenodd" d="M14.5035 15.499C13.9505 15.499 13.4985 15.052 13.4985 14.499C13.4985 13.946 13.9415 13.499 14.4945 13.499H14.5035C15.0565 13.499 15.5035 13.946 15.5035 14.499C15.5035 15.052 15.0565 15.499 14.5035 15.499Z" fill="black"/>
<path fill-rule="evenodd" clip-rule="evenodd" d="M9.50354 10.499C8.95054 10.499 8.49854 10.052 8.49854 9.49902C8.49854 8.94602 8.94154 8.49902 9.49454 8.49902H9.50354C10.0565 8.49902 10.5035 8.94602 10.5035 9.49902C10.5035 10.052 10.0565 10.499 9.50354 10.499Z" fill="black"/>
</svg>
