<svg width="25" height="25" viewBox="0 0 25 25" fill="none" xmlns="http://www.w3.org/2000/svg">
<path d="M18.2979 3.37305C17.5022 3.37305 16.7391 3.68912 16.1765 4.25173C15.6139 4.81434 15.2979 5.5774 15.2979 6.37305V18.373C15.2979 19.1687 15.6139 19.9318 16.1765 20.4944C16.7391 21.057 17.5022 21.373 18.2979 21.373C19.0935 21.373 19.8566 21.057 20.4192 20.4944C20.9818 19.9318 21.2979 19.1687 21.2979 18.373C21.2979 17.5774 20.9818 16.8143 20.4192 16.2517C19.8566 15.6891 19.0935 15.373 18.2979 15.373H6.29785C5.5022 15.373 4.73914 15.6891 4.17653 16.2517C3.61392 16.8143 3.29785 17.5774 3.29785 18.373C3.29785 19.1687 3.61392 19.9318 4.17653 20.4944C4.73914 21.057 5.5022 21.373 6.29785 21.373C7.0935 21.373 7.85656 21.057 8.41917 20.4944C8.98178 19.9318 9.29785 19.1687 9.29785 18.373V6.37305C9.29785 5.5774 8.98178 4.81434 8.41917 4.25173C7.85656 3.68912 7.0935 3.37305 6.29785 3.37305C5.5022 3.37305 4.73914 3.68912 4.17653 4.25173C3.61392 4.81434 3.29785 5.5774 3.29785 6.37305C3.29785 7.1687 3.61392 7.93176 4.17653 8.49437C4.73914 9.05698 5.5022 9.37305 6.29785 9.37305H18.2979C19.0935 9.37305 19.8566 9.05698 20.4192 8.49437C20.9818 7.93176 21.2979 7.1687 21.2979 6.37305C21.2979 5.5774 20.9818 4.81434 20.4192 4.25173C19.8566 3.68912 19.0935 3.37305 18.2979 3.37305Z" stroke="white" stroke-width="2" stroke-linecap="round" stroke-linejoin="round"/>
</svg>
