<svg width="30" height="30" viewBox="0 0 30 30" fill="none" xmlns="http://www.w3.org/2000/svg">
<path d="M15 29.9909C23.2843 29.9909 30 23.2752 30 14.9909C30 6.70666 23.2843 -0.00906372 15 -0.00906372C6.71573 -0.00906372 0 6.70666 0 14.9909C0 23.2752 6.71573 29.9909 15 29.9909Z" fill="#0C82EE"/>
<path d="M20.5864 19.5788L21.2528 15.3445H17.0839V12.5984C17.0839 11.4402 17.6657 10.3099 19.5321 10.3099H21.4286V6.70558C21.4286 6.70558 19.7089 6.41951 18.0643 6.41951C14.6303 6.41951 12.3879 8.44772 12.3879 12.1174V15.3445H8.57141V19.5788H12.3879V29.8131C13.1539 29.931 13.9371 29.9909 14.7353 29.9909C15.5346 29.9909 16.3178 29.931 17.0839 29.8131V19.5788H20.5864Z" fill="white"/>
</svg>
