<svg width="22" height="22" viewBox="0 0 22 22" fill="none" xmlns="http://www.w3.org/2000/svg">
<path d="M11 0.5C10.5512 0.5 10.1874 0.863794 10.1874 1.31256V9.68744C10.1874 9.96358 9.96358 10.1874 9.68744 10.1874H1.31256C0.863793 10.1874 0.5 10.5512 0.5 11C0.5 11.4488 0.863794 11.8126 1.31256 11.8126H9.68744C9.96358 11.8126 10.1874 12.0364 10.1874 12.3126V20.6874C10.1874 21.1362 10.5512 21.5 11 21.5C11.4488 21.5 11.8126 21.1362 11.8126 20.6874V12.3126C11.8126 12.0364 12.0364 11.8126 12.3126 11.8126H20.6874C21.1362 11.8126 21.5 11.4488 21.5 11C21.5 10.5512 21.1362 10.1874 20.6874 10.1874H12.3126C12.0364 10.1874 11.8126 9.96358 11.8126 9.68744V1.31256C11.8126 0.863793 11.4488 0.5 11 0.5Z" fill="white" stroke="white"/>
</svg>
