<svg width="30" height="30" viewBox="0 0 30 30" fill="none" xmlns="http://www.w3.org/2000/svg">
<path d="M30 15.3238C30 14.0909 29.8971 13.1909 29.6757 12.2581H15.3051V17.8238H23.7411C23.5711 19.2081 22.6525 21.291 20.611 22.691L20.5824 22.8766L25.127 26.3266L25.4412 26.3581C28.3328 23.7409 30 19.8909 30 15.3238Z" fill="#4285F4"/>
<path d="M15.3036 29.9909C19.4367 29.9909 22.9055 28.6581 25.4399 26.3581L20.6096 22.691C19.3167 23.5738 17.5823 24.1909 15.3036 24.1909C11.2563 24.1909 7.82045 21.5738 6.59611 17.9581L6.41604 17.9724L1.69151 21.5552L1.63013 21.7238C4.14597 26.6238 9.3162 29.9909 15.3036 29.9909Z" fill="#34A853"/>
<path d="M6.59884 17.9581C6.27596 17.0238 6.08882 16.0238 6.08882 14.9909C6.08882 13.9581 6.27602 12.9581 6.58175 12.0238L6.5732 11.8252L1.78868 8.18521L1.63295 8.25806C0.595751 10.2909 0 12.5738 0 14.9909C0 17.4081 0.595751 19.691 1.63295 21.7238L6.59884 17.9581Z" fill="#FBBC05"/>
<path d="M15.3036 5.79093C18.1781 5.79093 20.1167 7.00806 21.2225 8.02377L25.5427 3.89095C22.8897 1.47381 19.4367 -0.00906372 15.3036 -0.00906372C9.31763 -0.00906372 4.14597 3.35806 1.63013 8.25806L6.57893 12.0238C7.82042 8.40808 11.2563 5.79093 15.3036 5.79093Z" fill="#EB4335"/>
</svg>
