<svg width="25" height="25" viewBox="0 0 25 25" fill="none" xmlns="http://www.w3.org/2000/svg">
<path d="M20.2979 12.373V22.373H4.29785V12.373" stroke="white" stroke-width="2" stroke-linecap="round" stroke-linejoin="round"/>
<path d="M22.2979 7.37305H2.29785V12.373H22.2979V7.37305Z" stroke="white" stroke-width="2" stroke-linecap="round" stroke-linejoin="round"/>
<path d="M12.2979 22.373V7.37305" stroke="white" stroke-width="2" stroke-linecap="round" stroke-linejoin="round"/>
<path d="M12.2979 7.37305H7.79785C7.13481 7.37305 6.49893 7.10965 6.03008 6.64081C5.56124 6.17197 5.29785 5.53609 5.29785 4.87305C5.29785 4.21001 5.56124 3.57412 6.03008 3.10528C6.49893 2.63644 7.13481 2.37305 7.79785 2.37305C11.2979 2.37305 12.2979 7.37305 12.2979 7.37305Z" stroke="white" stroke-width="2" stroke-linecap="round" stroke-linejoin="round"/>
<path d="M12.2979 7.37305H16.7979C17.4609 7.37305 18.0968 7.10965 18.5656 6.64081C19.0345 6.17197 19.2979 5.53609 19.2979 4.87305C19.2979 4.21001 19.0345 3.57412 18.5656 3.10528C18.0968 2.63644 17.4609 2.37305 16.7979 2.37305C13.2979 2.37305 12.2979 7.37305 12.2979 7.37305Z" stroke="white" stroke-width="2" stroke-linecap="round" stroke-linejoin="round"/>
</svg>
