<svg width="24" height="25" viewBox="0 0 24 25" fill="none" xmlns="http://www.w3.org/2000/svg">
<path d="M12 22.9023C17.5228 22.9023 22 18.4252 22 12.9023C22 7.3795 17.5228 2.90234 12 2.90234C6.47715 2.90234 2 7.3795 2 12.9023C2 18.4252 6.47715 22.9023 12 22.9023Z" stroke="white" stroke-width="1.5" stroke-linecap="round" stroke-linejoin="round"/>
<path d="M12 18.9023C15.3137 18.9023 18 16.2161 18 12.9023C18 9.58864 15.3137 6.90234 12 6.90234C8.68629 6.90234 6 9.58864 6 12.9023C6 16.2161 8.68629 18.9023 12 18.9023Z" stroke="white" stroke-width="1.5" stroke-linecap="round" stroke-linejoin="round"/>
<path d="M12 14.9023C13.1046 14.9023 14 14.0069 14 12.9023C14 11.7978 13.1046 10.9023 12 10.9023C10.8954 10.9023 10 11.7978 10 12.9023C10 14.0069 10.8954 14.9023 12 14.9023Z" stroke="white" stroke-width="1.5" stroke-linecap="round" stroke-linejoin="round"/>
</svg>
