<svg width="25" height="27" viewBox="0 0 25 27" fill="none" xmlns="http://www.w3.org/2000/svg">
<mask id="mask0_2148_15864" style="mask-type:luminance" maskUnits="userSpaceOnUse" x="0" y="6" width="25" height="21">
<path fill-rule="evenodd" clip-rule="evenodd" d="M0.5 6.1748H24.9824V26.4018H0.5V6.1748Z" fill="white"/>
</mask>
<g mask="url(#mask0_2148_15864)">
<path fill-rule="evenodd" clip-rule="evenodd" d="M6.39441 8.0498C5.84316 8.0498 4.00066 8.2723 3.47191 11.1273L2.50691 18.6273C2.19316 20.7311 2.43566 22.2536 3.22941 23.1748C4.01316 24.0848 5.41566 24.5273 7.51566 24.5273H17.9507C19.2607 24.5273 21.0494 24.2661 22.1294 23.0186C22.9869 22.0298 23.2819 20.5573 23.0069 18.6411L22.0332 11.0761C21.6182 9.2123 20.5232 8.0498 19.1182 8.0498H6.39441ZM17.9507 26.4023H7.51566C4.83691 26.4023 2.97066 25.7461 1.80941 24.3973C0.643163 23.0448 0.253164 21.0161 0.650663 18.3686L1.62066 10.8361C2.25816 7.3823 4.58941 6.1748 6.39441 6.1748H19.1182C20.9307 6.1748 23.1344 7.37855 23.8782 10.7548L24.8644 18.3886C25.2182 20.8523 24.7757 22.8286 23.5469 24.2461C22.3244 25.6561 20.3894 26.4023 17.9507 26.4023V26.4023Z" fill="white"/>
</g>
<path fill-rule="evenodd" clip-rule="evenodd" d="M18.1223 7.775C17.6048 7.775 17.1848 7.355 17.1848 6.8375C17.1848 4.37625 15.1823 2.375 12.7223 2.375H12.7036C11.5273 2.375 10.3811 2.84875 9.54983 3.675C8.71483 4.50625 8.23608 5.66 8.23608 6.8375C8.23608 7.355 7.81608 7.775 7.29858 7.775C6.78108 7.775 6.36108 7.355 6.36108 6.8375C6.36108 5.16375 7.04108 3.5275 8.22608 2.34625C9.40733 1.1725 11.0361 0.5 12.6998 0.5H12.7261C16.2173 0.5 19.0598 3.3425 19.0598 6.8375C19.0598 7.355 18.6398 7.775 18.1223 7.775" fill="white"/>
<path fill-rule="evenodd" clip-rule="evenodd" d="M16.4291 13.4053H16.3716C15.8541 13.4053 15.4341 12.9853 15.4341 12.4678C15.4341 11.9503 15.8541 11.5303 16.3716 11.5303C16.8891 11.5303 17.3378 11.9503 17.3378 12.4678C17.3378 12.9853 16.9466 13.4053 16.4291 13.4053" fill="white"/>
<path fill-rule="evenodd" clip-rule="evenodd" d="M9.14023 13.4053H9.08398C8.56648 13.4053 8.14648 12.9853 8.14648 12.4678C8.14648 11.9503 8.56648 11.5303 9.08398 11.5303C9.60148 11.5303 10.0502 11.9503 10.0502 12.4678C10.0502 12.9853 9.65773 13.4053 9.14023 13.4053" fill="white"/>
</svg>
