<svg width="60" height="59" viewBox="0 0 60 59" fill="none" xmlns="http://www.w3.org/2000/svg">
<g id="Group 26">
<circle id="Ellipse 172" cx="30" cy="29.5" r="29.5" fill="#6C8299"/>
<path id="!" d="M32.0462 36.4249L33.0154 12H26.9308L27.9538 36.4249H32.0462ZM29.9462 48C30.9513 48 31.7949 47.6771 32.4769 47.0312C33.159 46.3853 33.5 45.6204 33.5 44.7365C33.5 43.7847 33.159 43.0028 32.4769 42.3909C31.7949 41.779 30.9513 41.4731 29.9462 41.4731C28.941 41.4731 28.1154 41.779 27.4692 42.3909C26.8231 43.0028 26.5 43.7847 26.5 44.7365C26.5 45.6204 26.8231 46.3853 27.4692 47.0312C28.1154 47.6771 28.941 48 29.9462 48Z" fill="white"/>
</g>
</svg>
