<svg width="24" height="24" viewBox="0 0 24 24" fill="none" xmlns="http://www.w3.org/2000/svg">
<path fill-rule="evenodd" clip-rule="evenodd" d="M9.60229 15.1375C9.41029 15.1375 9.21829 15.0645 9.07229 14.9175C8.77929 14.6245 8.77929 14.1505 9.07229 13.8575L13.8643 9.06545C14.1573 8.77245 14.6313 8.77245 14.9243 9.06545C15.2173 9.35845 15.2173 9.83245 14.9243 10.1255L10.1323 14.9175C9.98629 15.0645 9.79429 15.1375 9.60229 15.1375Z" fill="#6C8299"/>
<path fill-rule="evenodd" clip-rule="evenodd" d="M14.3963 15.1405C14.2043 15.1405 14.0123 15.0675 13.8663 14.9205L9.07034 10.1235C8.77734 9.8305 8.77734 9.3565 9.07034 9.0635C9.36434 8.7705 9.83834 8.7705 10.1303 9.0635L14.9263 13.8605C15.2193 14.1535 15.2193 14.6275 14.9263 14.9205C14.7803 15.0675 14.5873 15.1405 14.3963 15.1405Z" fill="#6C8299"/>
<path fill-rule="evenodd" clip-rule="evenodd" d="M7.665 3.5C5.135 3.5 3.5 5.233 3.5 7.916V16.084C3.5 18.767 5.135 20.5 7.665 20.5H16.333C18.864 20.5 20.5 18.767 20.5 16.084V7.916C20.5 5.233 18.864 3.5 16.334 3.5H7.665ZM16.333 22H7.665C4.276 22 2 19.622 2 16.084V7.916C2 4.378 4.276 2 7.665 2H16.334C19.723 2 22 4.378 22 7.916V16.084C22 19.622 19.723 22 16.333 22Z" fill="#6C8299"/>
</svg>
