<svg width="22" height="26" viewBox="0 0 22 26" fill="none" xmlns="http://www.w3.org/2000/svg">
<g id="Paper Plus">
<path id="Fill 1" fill-rule="evenodd" clip-rule="evenodd" d="M5.96631 2.38965C3.89381 2.38965 2.17506 4.06715 2.12631 6.1359V19.6746C2.09006 21.7334 3.72381 23.4234 5.76756 23.4584L5.95131 23.4571H15.9663C18.0188 23.4346 19.6926 21.7384 19.6901 19.6759V8.42715L13.8976 2.38965H5.98131H5.96631ZM5.75006 25.3334C2.65881 25.2796 0.198813 22.7334 0.251313 19.6584V6.1134C0.322563 3.01215 2.88381 0.514648 5.96256 0.514648H5.98506H14.2963C14.5513 0.514648 14.7951 0.618398 14.9726 0.802148L21.3051 7.4009C21.4713 7.57465 21.5651 7.8084 21.5651 8.04965V19.6746C21.5701 22.7609 19.0626 25.2996 15.9763 25.3321L5.75006 25.3334Z" fill="white"/>
<path id="Fill 3" fill-rule="evenodd" clip-rule="evenodd" d="M20.622 9.23098H17.1795C14.8908 9.22473 13.0308 7.35973 13.0308 5.07473V1.43848C13.0308 0.920977 13.4508 0.500977 13.9683 0.500977C14.4858 0.500977 14.9058 0.920977 14.9058 1.43848V5.07473C14.9058 6.32973 15.927 7.35223 17.182 7.35598H20.622C21.1395 7.35598 21.5595 7.77598 21.5595 8.29348C21.5595 8.81098 21.1395 9.23098 20.622 9.23098Z" fill="white"/>
<path id="Fill 5" fill-rule="evenodd" clip-rule="evenodd" d="M13.7424 15.0811H7.61865C7.10115 15.0811 6.68115 14.6611 6.68115 14.1436C6.68115 13.6261 7.10115 13.2061 7.61865 13.2061H13.7424C14.2599 13.2061 14.6799 13.6261 14.6799 14.1436C14.6799 14.6611 14.2599 15.0811 13.7424 15.0811Z" fill="white"/>
<path id="Fill 7" fill-rule="evenodd" clip-rule="evenodd" d="M10.6807 18.1436C10.1632 18.1436 9.74316 17.7236 9.74316 17.2061V11.0811C9.74316 10.5636 10.1632 10.1436 10.6807 10.1436C11.1982 10.1436 11.6182 10.5636 11.6182 11.0811V17.2061C11.6182 17.7236 11.1982 18.1436 10.6807 18.1436Z" fill="white"/>
</g>
</svg>
