<svg width="20" height="22" viewBox="0 0 20 22" fill="none" xmlns="http://www.w3.org/2000/svg">
<mask id="mask0_1838_39295" style="mask-type:luminance" maskUnits="userSpaceOnUse" x="0" y="0" width="20" height="22">
<path fill-rule="evenodd" clip-rule="evenodd" d="M0 0.500977H19.2849V21.222H0V0.500977Z" fill="white"/>
</mask>
<g mask="url(#mask0_1838_39295)">
<path fill-rule="evenodd" clip-rule="evenodd" d="M5.2022 15.941C5.4312 15.941 5.6602 15.97 5.8842 16.03C6.5602 16.212 7.1472 16.664 7.4952 17.271C7.7212 17.652 7.8462 18.097 7.8502 18.551C7.8502 19.201 8.3722 19.722 9.0142 19.722H10.2672C10.9062 19.722 11.4282 19.204 11.4312 18.565C11.4272 17.859 11.7032 17.188 12.2082 16.683C12.7062 16.185 13.4022 15.886 14.0982 15.906C14.5542 15.917 14.9932 16.04 15.3802 16.26C15.9372 16.579 16.6482 16.389 16.9702 15.839L17.6342 14.732C17.7822 14.477 17.8252 14.157 17.7462 13.862C17.6682 13.567 17.4722 13.311 17.2082 13.16C16.5902 12.804 16.1492 12.23 15.9662 11.542C15.7852 10.867 15.8842 10.13 16.2372 9.52298C16.4672 9.12298 16.8042 8.78598 17.2082 8.55398C17.7502 8.23698 17.9402 7.52798 17.6252 6.97598C17.6122 6.95398 17.6002 6.93098 17.5902 6.90698L17.0042 5.89098C16.6852 5.33598 15.9752 5.14498 15.4182 5.46198C14.8162 5.81798 14.1002 5.91998 13.4122 5.73898C12.7252 5.56098 12.1492 5.12598 11.7902 4.51198C11.5602 4.12798 11.4352 3.68098 11.4312 3.22598C11.4402 2.88398 11.3202 2.57698 11.1022 2.35198C10.8852 2.12798 10.5802 2.00098 10.2672 2.00098H9.0142C8.7042 2.00098 8.4142 2.12198 8.1952 2.33998C7.9772 2.55898 7.8582 2.84998 7.8602 3.15998C7.8392 4.62198 6.6442 5.79898 5.1972 5.79898C4.7332 5.79398 4.2862 5.66898 3.8982 5.43698C3.3532 5.12698 2.6412 5.31798 2.3222 5.87298L1.6452 6.98598C1.3352 7.52398 1.5252 8.23498 2.0772 8.55598C2.8962 9.02998 3.4072 9.91398 3.4072 10.862C3.4072 11.81 2.8962 12.693 2.0752 13.168C1.5262 13.486 1.3362 14.193 1.6542 14.743L2.2852 15.831C2.4412 16.112 2.6962 16.315 2.9912 16.398C3.2852 16.48 3.6092 16.445 3.8792 16.295C4.2762 16.062 4.7382 15.941 5.2022 15.941ZM10.2672 21.222H9.0142C7.5452 21.222 6.3502 20.028 6.3502 18.559C6.3482 18.378 6.2962 18.19 6.1992 18.027C6.0422 17.753 5.7882 17.557 5.4952 17.479C5.2042 17.401 4.8852 17.444 4.6232 17.596C3.9952 17.946 3.2562 18.031 2.5802 17.841C1.9052 17.65 1.3222 17.186 0.980198 16.571L0.355198 15.494C-0.375802 14.226 0.0591977 12.601 1.3252 11.869C1.6842 11.662 1.9072 11.276 1.9072 10.862C1.9072 10.448 1.6842 10.061 1.3252 9.85398C0.0581977 9.11798 -0.375802 7.48898 0.354198 6.22098L1.0322 5.10798C1.7532 3.85398 3.3832 3.41198 4.6542 4.14198C4.8272 4.24498 5.0152 4.29698 5.2062 4.29898C5.8292 4.29898 6.3502 3.78498 6.3602 3.15298C6.3562 2.45598 6.6312 1.78698 7.1322 1.28198C7.6352 0.777977 8.3032 0.500977 9.0142 0.500977H10.2672C10.9832 0.500977 11.6792 0.794977 12.1782 1.30598C12.6762 1.81998 12.9512 2.52498 12.9302 3.23998C12.9322 3.40098 12.9852 3.58698 13.0812 3.74998C13.2402 4.01998 13.4912 4.20998 13.7892 4.28798C14.0872 4.36198 14.3992 4.32198 14.6642 4.16498C15.9442 3.43398 17.5732 3.87198 18.3042 5.14198L18.9272 6.22098C18.9432 6.24998 18.9572 6.27798 18.9692 6.30698C19.6312 7.55798 19.1892 9.13298 17.9592 9.85198C17.7802 9.95498 17.6352 10.099 17.5352 10.273C17.3802 10.542 17.3372 10.862 17.4152 11.156C17.4952 11.456 17.6862 11.705 17.9552 11.859C18.5622 12.208 19.0152 12.796 19.1962 13.475C19.3772 14.153 19.2782 14.889 18.9252 15.496L18.2612 16.602C17.5302 17.858 15.9012 18.293 14.6342 17.561C14.4652 17.464 14.2702 17.411 14.0762 17.406H14.0702C13.7812 17.406 13.4842 17.529 13.2682 17.744C13.0492 17.963 12.9292 18.255 12.9312 18.565C12.9242 20.034 11.7292 21.222 10.2672 21.222Z" fill="black"/>
</g>
<path fill-rule="evenodd" clip-rule="evenodd" d="M9.64516 8.97461C8.60516 8.97461 7.75916 9.82161 7.75916 10.8616C7.75916 11.9016 8.60516 12.7466 9.64516 12.7466C10.6852 12.7466 11.5312 11.9016 11.5312 10.8616C11.5312 9.82161 10.6852 8.97461 9.64516 8.97461ZM9.64516 14.2466C7.77816 14.2466 6.25916 12.7286 6.25916 10.8616C6.25916 8.99461 7.77816 7.47461 9.64516 7.47461C11.5122 7.47461 13.0312 8.99461 13.0312 10.8616C13.0312 12.7286 11.5122 14.2466 9.64516 14.2466Z" fill="black"/>
</svg>
