<svg width="18" height="19" viewBox="0 0 18 19" fill="none" xmlns="http://www.w3.org/2000/svg">
<path fill-rule="evenodd" clip-rule="evenodd" d="M18 4H0V7C1.10457 7 2 7.89543 2 9V13C2 15.8284 2 17.2426 2.87868 18.1213C3.75736 19 5.17157 19 8 19H10C12.8284 19 14.2426 19 15.1213 18.1213C16 17.2426 16 15.8284 16 13V9C16 7.89543 16.8954 7 18 7V4ZM7.5 9C7.5 8.44772 7.05228 8 6.5 8C5.94772 8 5.5 8.44772 5.5 9V14C5.5 14.5523 5.94772 15 6.5 15C7.05228 15 7.5 14.5523 7.5 14V9ZM12.5 9C12.5 8.44772 12.0523 8 11.5 8C10.9477 8 10.5 8.44772 10.5 9V14C10.5 14.5523 10.9477 15 11.5 15C12.0523 15 12.5 14.5523 12.5 14V9Z" fill="white"/>
<path d="M7.06815 1.37059C7.1821 1.26427 7.43319 1.17033 7.78248 1.10332C8.13177 1.03632 8.55973 1 9 1C9.44027 1 9.86823 1.03632 10.2175 1.10332C10.5668 1.17033 10.8179 1.26427 10.9319 1.37059" stroke="white" stroke-width="2" stroke-linecap="round"/>
</svg>
