<svg width="18" height="23" viewBox="0 0 18 23" fill="none" xmlns="http://www.w3.org/2000/svg">
<path fill-rule="evenodd" clip-rule="evenodd" d="M0.87868 8.37868C0 9.25736 0 10.6716 0 13.5V14.5C0 18.2712 0 20.1569 1.17157 21.3284C2.34315 22.5 4.22876 22.5 8 22.5H10C13.7712 22.5 15.6569 22.5 16.8284 21.3284C18 20.1569 18 18.2712 18 14.5V13.5C18 10.6716 18 9.25736 17.1213 8.37868C16.2426 7.5 14.8284 7.5 12 7.5H6C3.17157 7.5 1.75736 7.5 0.87868 8.37868ZM9 15.5C9.55228 15.5 10 15.0523 10 14.5C10 13.9477 9.55228 13.5 9 13.5C8.44772 13.5 8 13.9477 8 14.5C8 15.0523 8.44772 15.5 9 15.5ZM12 14.5C12 15.8062 11.1652 16.9175 10 17.3293V19.5H8V17.3293C6.83481 16.9175 6 15.8062 6 14.5C6 12.8431 7.34315 11.5 9 11.5C10.6569 11.5 12 12.8431 12 14.5Z" fill="white"/>
<path d="M13.5 8.50079V8.50079C13.8043 6.67457 13.0108 4.83939 11.4717 3.81033L11.0979 3.56044C9.07338 2.20676 6.3937 2.37361 4.55269 3.96797L3.66992 4.73247" stroke="white" stroke-width="2" stroke-linecap="round"/>
</svg>
