<svg width="20" height="20" viewBox="0 0 20 20" fill="none" xmlns="http://www.w3.org/2000/svg">
<path fill-rule="evenodd" clip-rule="evenodd" d="M9.99512 15.4266C9.58112 15.4266 9.24512 15.0906 9.24512 14.6766V12.1396C9.24512 11.7256 9.58112 11.3896 9.99512 11.3896C10.4091 11.3896 10.7451 11.7256 10.7451 12.1396V14.6766C10.7451 15.0906 10.4091 15.4266 9.99512 15.4266Z" fill="black"/>
<mask id="mask0_2263_16549" style="mask-type:luminance" maskUnits="userSpaceOnUse" x="0" y="2" width="20" height="11">
<path fill-rule="evenodd" clip-rule="evenodd" d="M0.000244141 2.58008H19.99V12.8911H0.000244141V2.58008Z" fill="white"/>
</mask>
<g mask="url(#mask0_2263_16549)">
<path fill-rule="evenodd" clip-rule="evenodd" d="M1.50024 9.39308C3.87624 10.6841 6.87224 11.3911 9.99024 11.3911C13.1142 11.3911 16.1132 10.6841 18.4902 9.39308V6.39108C18.4902 5.11608 17.4592 4.08008 16.1902 4.08008H3.81024C2.53624 4.08008 1.50024 5.11208 1.50024 6.38108V9.39308ZM9.99024 12.8911C6.44524 12.8911 3.02824 12.0331 0.371244 10.4771C0.141244 10.3431 0.000244141 10.0971 0.000244141 9.83008V6.38108C0.000244141 4.28508 1.70924 2.58008 3.81024 2.58008H16.1902C18.2862 2.58008 19.9902 4.28908 19.9902 6.39108V9.83008C19.9902 10.0971 19.8482 10.3431 19.6192 10.4771C16.9622 12.0331 13.5422 12.8911 9.99024 12.8911Z" fill="black"/>
</g>
<mask id="mask1_2263_16549" style="mask-type:luminance" maskUnits="userSpaceOnUse" x="5" y="0" width="10" height="5">
<path fill-rule="evenodd" clip-rule="evenodd" d="M5.74512 0H14.2451V4.0759H5.74512V0Z" fill="white"/>
</mask>
<g mask="url(#mask1_2263_16549)">
<path fill-rule="evenodd" clip-rule="evenodd" d="M13.4951 4.076C13.0811 4.076 12.7451 3.74 12.7451 3.326V2.96C12.7451 2.155 12.0901 1.5 11.2851 1.5H8.70512C7.90012 1.5 7.24512 2.155 7.24512 2.96V3.326C7.24512 3.74 6.90912 4.076 6.49512 4.076C6.08112 4.076 5.74512 3.74 5.74512 3.326V2.96C5.74512 1.328 7.07312 0 8.70512 0H11.2851C12.9171 0 14.2451 1.328 14.2451 2.96V3.326C14.2451 3.74 13.9091 4.076 13.4951 4.076Z" fill="black"/>
</g>
<path fill-rule="evenodd" clip-rule="evenodd" d="M15.7949 19.74H4.19494C2.11994 19.74 0.37294 18.119 0.21594 16.049L0.0259402 13.54C-0.00505975 13.127 0.30494 12.766 0.71794 12.735C1.13294 12.72 1.49094 13.013 1.52294 13.427L1.71194 15.935C1.80994 17.227 2.89994 18.24 4.19494 18.24H15.7949C17.0899 18.24 18.1809 17.227 18.2779 15.935L18.4679 13.427C18.4999 13.013 18.8669 12.719 19.2729 12.735C19.6859 12.766 19.9949 13.127 19.9639 13.54L19.7739 16.049C19.6169 18.119 17.8699 19.74 15.7949 19.74Z" fill="black"/>
</svg>
